<svg width="19" height="19" viewBox="0 0 19 19" fill="none" xmlns="http://www.w3.org/2000/svg">
<path d="M8.47656 1.00879L8.50185 0.509253L8.48859 0.508934L8.47656 1.00879ZM15.2227 8.11133L15.7227 8.1247V8.11133H15.2227ZM15.2129 8.47656L15.7124 8.50185L15.7127 8.48993L15.2129 8.47656ZM13.793 12.3838L13.3936 12.083C13.2364 12.2916 13.2664 12.5861 13.4623 12.7588L13.793 12.3838ZM13.8408 12.4268L13.4873 12.7803L13.4873 12.7804L13.8408 12.4268ZM17.708 16.293L18.0618 15.9397L18.0615 15.9394L17.708 16.293ZM16.293 17.708L15.9394 18.0615L15.9397 18.0618L16.293 17.708ZM12.4268 13.8408L12.7804 13.4873L12.7803 13.4873L12.4268 13.8408ZM12.3838 13.793L12.7588 13.4623C12.586 13.2664 12.2916 13.2364 12.0829 13.3936L12.3838 13.793ZM8.11133 15.2227L8.09799 15.7227L8.11134 15.7227L8.11133 15.2227ZM7.74512 15.2129L7.71979 15.7124L7.73179 15.7127L7.74512 15.2129ZM1.00879 8.47656L0.508758 8.4886L0.509428 8.50184L1.00879 8.47656ZM1 8.11133L0.499855 8.11133L0.500145 8.12336L1 8.11133ZM8.11133 1L8.12336 0.5H8.11133V1ZM8.11133 3L8.11135 2.5H8.11133V3ZM3 8.11133L2.5 8.11133L2.5 8.11135L3 8.11133ZM8.11133 13.2227L8.11133 13.7227L8.11135 13.7227L8.11133 13.2227ZM13.2227 8.11133L13.7227 8.11135V8.11133H13.2227ZM8.47656 1.00879L8.45129 1.50815C11.9442 1.68496 14.7227 4.57418 14.7227 8.11133H15.2227H15.7227C15.7227 4.03887 12.524 0.713028 8.50184 0.509428L8.47656 1.00879ZM15.2227 8.11133L14.7228 8.09796L14.7131 8.4632L15.2129 8.47656L15.7127 8.48993L15.7225 8.12469L15.2227 8.11133ZM15.2129 8.47656L14.7135 8.45128C14.6447 9.81092 14.1634 11.0608 13.3936 12.083L13.793 12.3838L14.1924 12.6846C15.0777 11.5089 15.6329 10.0686 15.7123 8.50184L15.2129 8.47656ZM13.793 12.3838L13.4623 12.7588C13.4682 12.7641 13.4739 12.769 13.4778 12.7724C13.4823 12.7762 13.4849 12.7785 13.4872 12.7805C13.4921 12.7848 13.4908 12.7839 13.4873 12.7803L13.8408 12.4268L14.1944 12.0732C14.1757 12.0545 14.1584 12.0391 14.1471 12.0291C14.1183 12.0039 14.1438 12.0266 14.1237 12.0088L13.793 12.3838ZM13.8408 12.4268L13.4873 12.7804L17.3545 16.6466L17.708 16.293L18.0615 15.9394L14.1943 12.0732L13.8408 12.4268ZM17.708 16.293L17.3542 16.6463C17.5495 16.8419 17.5493 17.1596 17.3545 17.3545L17.708 17.708L18.0616 18.0616C18.6474 17.4757 18.6465 16.5252 18.0618 15.9397L17.708 16.293ZM17.708 17.708L17.3545 17.3545C17.1596 17.5493 16.8419 17.5495 16.6463 17.3542L16.293 17.708L15.9397 18.0618C16.5252 18.6465 17.4757 18.6474 18.0616 18.0616L17.708 17.708ZM16.293 17.708L16.6466 17.3545L12.7804 13.4873L12.4268 13.8408L12.0732 14.1943L15.9394 18.0615L16.293 17.708ZM12.4268 13.8408L12.7803 13.4873C12.7839 13.4908 12.7848 13.4921 12.7805 13.4872C12.7785 13.4849 12.7762 13.4823 12.7724 13.4778C12.769 13.4739 12.7641 13.4682 12.7588 13.4623L12.3838 13.793L12.0088 14.1237C12.0266 14.1438 12.0039 14.1183 12.0291 14.1471C12.0391 14.1584 12.0545 14.1757 12.0732 14.1944L12.4268 13.8408ZM12.3838 13.793L12.0829 13.3936C10.9764 14.2271 9.60271 14.7226 8.11131 14.7227L8.11133 15.2227L8.11134 15.7227C9.82835 15.7226 11.4117 15.1513 12.6846 14.1923L12.3838 13.793ZM8.11133 15.2227L8.12466 14.7228L7.75845 14.7131L7.74512 15.2129L7.73179 15.7127L8.098 15.7225L8.11133 15.2227ZM7.74512 15.2129L7.77043 14.7135C4.39039 14.5422 1.67924 11.8313 1.50815 8.45129L1.00879 8.47656L0.509428 8.50184C0.706469 12.3945 3.82737 15.5149 7.7198 15.7122L7.74512 15.2129ZM1.00879 8.47656L1.50864 8.46453L1.49986 8.0993L1 8.11133L0.500145 8.12336L0.508934 8.48859L1.00879 8.47656ZM1 8.11133H1.5C1.5 4.46011 4.46011 1.5 8.11133 1.5V1V0.5C3.90783 0.5 0.5 3.90783 0.5 8.11133H1ZM8.11133 1L8.0993 1.49986L8.46453 1.50864L8.47656 1.00879L8.48859 0.508934L8.12336 0.500145L8.11133 1ZM8.11133 3V2.5C5.0124 2.5 2.5 5.0124 2.5 8.11133H3H3.5C3.5 5.56468 5.56468 3.5 8.11133 3.5V3ZM3 8.11133L2.5 8.11135C2.50013 11.2101 5.01245 13.7227 8.11133 13.7227V13.2227V12.7227C5.56477 12.7227 3.50011 10.6579 3.5 8.11131L3 8.11133ZM8.11133 13.2227L8.11135 13.7227C11.2101 13.7225 13.7225 11.2101 13.7227 8.11135L13.2227 8.11133L12.7227 8.11131C12.7226 10.6578 10.6578 12.7226 8.11131 12.7227L8.11133 13.2227ZM13.2227 8.11133H13.7227C13.7227 5.01245 11.2101 2.50013 8.11135 2.5L8.11133 3L8.11131 3.5C10.6579 3.50011 12.7227 5.56477 12.7227 8.11133H13.2227Z" fill="black"/>
</svg>
